{"title":"Drinking.Buddies.2013 .WEB-DL.x264.AC3 - BiTo","uid":8743340,"size":1086815464,"categoryP":"video","categoryS":"movies","magnet":"?xt=urn:btih:e75e6eef5e2fd9f9658c64c19c4ffc8641a5c5d1&amp;dn=Drinking.Buddies.2013+.WEB-DL.x264.AC3+-+BiTo&amp;tr=udp%3A%2F%2Ftracker.openbittorrent.com%3A80&amp;tr=udp%3A%2F%2Fopen.demonii.com%3A1337&amp;tr=udp%3A%2F%2Ftracker.coppersurfer.tk%3A6969&amp;tr=udp%3A%2F%2Fexodus.desync.com%3A6969","seeders":1,"leechers":0,"uploader":"xxxlavalxxx","files":-1,"time":1374851184,"description":" &lt;a href=&quot;http://www.imdb.com/title/tt2265398/&quot; rel=&quot;nofollow&quot; target=&quot;_NEW&quot;&gt;http://www.imdb.com/title/tt2265398/&lt;/a&gt;\n\n\nLuke and Kate are co-workers at a Chicago brewery, where they spend their days drinking and flirting. They're perfect for each other, except that they're both in relationships. Luke is in ... \n\n\n\nDirector:\n Joe Swanberg \n\nWriter:\n Joe Swanberg \n\nStars:\n Olivia Wilde, Jake Johnson, Anna Kendrick\n\nGenres:\n  Comedy |  Drama |  Romance \n\nCountry:\n USA \n\nLanguage:\n English \n\n\n\n\nSource: 720p WEBDL OWN\n Sample: Yes\n Codec: x264\n Audio: 6CH @ English\n Container: mkv\n Chapters: No\n\n\n ID                                       : 1\n Format                                   : AVC\n Format/Info                              : Advanced Video Codec\n Format profile                           : &lt;a class=&quot;__cf_email__&quot; href=&quot;/cdn-cgi/l/email-protection&quot; data-cfemail=&quot;480529212608047b6678&quot;&gt;[email&amp;#160;protected]&lt;/a&gt;&lt;script cf-hash='f9e31' type=&quot;text/javascript&quot;&gt;\n/* &lt;![CDATA[ */!function(){try{var t=&quot;currentScript&quot;in document?document.currentScript:function(){for(var t=document.getElementsByTagName(&quot;script&quot;),e=t.length;e--;)if(t[e].getAttribute(&quot;cf-hash&quot;))return t[e]}();if(t&amp;&amp;t.previousSibling){var e,r,n,i,c=t.previousSibling,a=c.getAttribute(&quot;data-cfemail&quot;);if(a){for(e=&quot;&quot;,r=parseInt(a.substr(0,2),16),n=2;a.length-n;n+=2)i=parseInt(a.substr(n,2),16)^r,e+=String.fromCharCode(i);e=document.createTextNode(e),c.parentNode.replaceChild(e,c)}}}catch(u){}}();/* ]]&gt; */&lt;/script&gt;\n Format settings, CABAC                   : Yes\n Format settings, ReFrames                : 4 frames\n Codec ID                                 : V_MPEG4/ISO/AVC\n Duration                                 : 1h 30mn\n Bit rate                                 : 1 200 Kbps\n Width                                    : 720 pixels\n Height                                   : 304 pixels\n Display aspect ratio                     : 2.35:1\n Original display aspect ratio            : 2.35:1\n Frame rate mode                          : Constant\n Frame rate                               : 23.976 fps\n Color space                              : YUV\n Chroma subsampling                       : 4:2:0\n Bit depth                                : 8 bits\n Scan type                                : Progressive\n Bits/(Pixel*Frame)                       : 0.229\n Stream size                              : 748 MiB (74%)\n Writing library                          : x264 core 120\n\n\n\n ID                                       : 2\n Format                                   : AC-3\n Format/Info                              : Audio Coding 3\n Mode extension                           : CM (complete main)\n Format settings, Endianness              : Big\n Codec ID                                 : A_AC3\n Duration                                 : 1h 30mn\n Bit rate mode                            : Constant\n Bit rate                                 : 384 Kbps\n Channel(s)                               : 6 channels\n Channel positions                        : Front: L C R, Side: L R, LFE\n Sampling rate                            : 48.0 KHz\n Bit depth                                : 16 bits\n Compression mode                         : Lossy\n Stream size                              : 248 MiB (24%)\n Language                                 : English\n Default                                  : No\n Forced                                   : No\n\n\nscreens\n\n\n    &lt;a href=&quot;\thttp://addpix.net/viewer.php?file=45084441041397019708.jpg&quot; rel=&quot;nofollow&quot; target=&quot;_NEW&quot;&gt;\thttp://addpix.net/viewer.php?file=45084441041397019708.jpg&lt;/a&gt;\n    &lt;a href=&quot;\thttp://addpix.net/viewer.php?file=68668045192581010034.jpg&quot; rel=&quot;nofollow&quot; target=&quot;_NEW&quot;&gt;\thttp://addpix.net/viewer.php?file=68668045192581010034.jpg&lt;/a&gt;\n    &lt;a href=&quot;\thttp://addpix.net/viewer.php?file=35640421892008635069.jpg&quot; rel=&quot;nofollow&quot; target=&quot;_NEW&quot;&gt;\thttp://addpix.net/viewer.php?file=35640421892008635069.jpg&lt;/a&gt;\n    &lt;a href=&quot;\thttp://addpix.net/viewer.php?file=94587218408744412147.jpg&quot; rel=&quot;nofollow&quot; target=&quot;_NEW&quot;&gt;\thttp://addpix.net/viewer.php?file=94587218408744412147.jpg&lt;/a&gt;","torrent":{"xt":"urn:btih:e75e6eef5e2fd9f9658c64c19c4ffc8641a5c5d1","amp;dn":"Drinking.Buddies.2013+.WEB-DL.x264.AC3+-+BiTo","amp;tr":["udp%3A%2F%2Ftracker.openbittorrent.com%3A80","udp%3A%2F%2Fopen.demonii.com%3A1337","udp%3A%2F%2Ftracker.coppersurfer.tk%3A6969","udp%3A%2F%2Fexodus.desync.com%3A6969"],"infoHash":"e75e6eef5e2fd9f9658c64c19c4ffc8641a5c5d1","infoHashBuffer":{"type":"Buffer","data":[231,94,110,239,94,47,217,249,101,140,100,193,156,79,252,134,65,165,197,209]},"announce":[],"urlList":[]}}